# xmcd
#
# Track frame offsets: 
#        150
#        15272
#        32375
#        50750
#        74282
#        97102
#        118262
#        139287
#        159167
#        175672
#
# Disc length: 2573 seconds
#
# Revision: 0
# Processed by: cddbd v1.5.2PL0 Copyright (c) Steve Scherf et al.
# Submitted via: ExactAudioCopy v1.0b1
#
DISCID=7e0a0b0a
DTITLE=何篤霖 - 把夢親手交給你
DYEAR=1990
DGENRE=Oldies
TTITLE0=把夢親手交給你
TTITLE1=錯過你，我什麼都不要
TTITLE2=街中舞者
TTITLE3=疲倦的舞鞋
TTITLE4=想你在夢裡
TTITLE5=祝福你，忘記你
TTITLE6=我可以收到你的信號
TTITLE7=雪莉
TTITLE8=你曾經是
TTITLE9=溫柔記事
EXTD=
EXTT0=
EXTT1=
EXTT2=
EXTT3=
EXTT4=
EXTT5=
EXTT6=
EXTT7=
EXTT8=
EXTT9=
PLAYORDER=
